M48
; DRILL file {KiCad (5.1.2)-2} date 09/04/19 20:47:21
; FORMAT={-:-/ absolute / metric / decimal}
; #@! TF.CreationDate,2019-09-04T20:47:21+02:00
; #@! TF.GenerationSoftware,Kicad,Pcbnew,(5.1.2)-2
FMAT,2
METRIC
T1C0.400
T2C0.800
T3C1.100
T4C3.200
%
G90
G05
T1
X3.429Y37.084
X3.429Y32.258
X7.59Y36.575
X7.59Y21.59
X16.48Y21.588
X16.51Y5.08
X18.161Y20.32
X18.161Y6.604
X23.535Y8.128
X23.622Y31.115
X24.862Y24.862
X25.908Y30.988
X26.259Y48.611
X26.807Y52.268
X27.432Y47.244
X27.432Y30.988
X27.686Y18.288
X27.686Y5.08
X31.496Y27.305
X31.496Y5.08
X35.56Y28.702
X35.56Y3.302
X37.084Y52.578
X42.164Y32.004
X42.164Y28.956
X47.371Y8.128
X47.498Y24.13
X49.149Y40.005
X49.784Y52.832
X50.546Y19.558
X51.562Y52.832
X55.88Y32.004
X55.88Y28.956
X56.185Y13.513
X59.309Y22.774
X59.309Y24.892
X64.161Y38.836
X68.834Y52.578
X70.358Y52.578
X74.676Y32.004
X74.676Y28.956
X77.851Y9.271
X77.978Y14.224
X83.312Y52.578
T2
X50.8Y50.292
X50.8Y35.052
X53.34Y50.292
X53.34Y35.052
X55.88Y50.292
X55.88Y35.052
X58.42Y50.292
X58.42Y35.052
X60.96Y50.292
X60.96Y35.052
X83.312Y50.292
X83.312Y35.052
X85.852Y50.292
X85.852Y35.052
X88.392Y50.292
X88.392Y35.052
X90.932Y50.292
X90.932Y35.052
X93.472Y50.292
X93.472Y35.052
X64.008Y40.64
X66.548Y40.64
X37.084Y50.292
X37.084Y35.052
X39.624Y50.292
X39.624Y35.052
X42.164Y50.292
X42.164Y35.052
X44.704Y50.292
X44.704Y35.052
X47.244Y50.292
X47.244Y35.052
X64.008Y45.085
X66.548Y45.085
X4.13Y41.569
X69.596Y50.292
X69.596Y35.052
X72.136Y50.292
X72.136Y35.052
X74.676Y50.292
X74.676Y35.052
X77.216Y50.292
X77.216Y35.052
X79.756Y50.292
X79.756Y35.052
T3
X85.956Y24.13
X85.956Y19.63
X92.456Y24.13
X92.456Y19.63
X38.1Y24.13
X38.1Y19.63
X44.6Y24.13
X44.6Y19.63
X82.042Y14.271
X82.042Y9.271
T4
X4.0Y53.53
X94.996Y4.0
X4.0Y4.0
T0
M30
